<?xml version="1.0" encoding="UTF-8"?>
<svg xmlns="http://www.w3.org/2000/svg" id="Outline" viewBox="0 0 512 512" width="512" height="512"><path d="M272,296h-8v-8a8,8,0,0,0-16,0v8H232v-8a8,8,0,0,0-16,0v8h-8a8,8,0,0,0,0,16h8v8a8,8,0,0,0,16,0v-8h16v8a8,8,0,0,0,16,0v-8h8a8,8,0,0,0,0-16Z"/><path d="M485.657,242.343l-12.5-12.5,6.437-19.309A8,8,0,0,0,472,200a67.714,67.714,0,0,0-49.08,20.889c-15.855-10.593-44.1-17.379-84.252-20.243l10.989-10.989A8,8,0,0,0,344,176H315.313A63.62,63.62,0,0,0,320,152h32a8,8,0,0,0,5-14.247l-35.643-28.515,11.486-34.46,48.009,20.576a8,8,0,0,0,10.1-11.323l-32-56a8,8,0,0,0-5.377-3.876C351.9,23.822,312.419,16,280,16c-16.2,0-35.325,15.47-58.47,47.3a463.614,463.614,0,0,0-27.762,43.445L155,137.753A8,8,0,0,0,160,152h32a63.62,63.62,0,0,0,4.687,24H168a8,8,0,0,0-5.657,13.657l10.99,10.99c-40.152,2.864-68.4,9.646-84.254,20.241A67.715,67.715,0,0,0,40,200a8,8,0,0,0-7.589,10.53l6.436,19.309-12.5,12.5a8,8,0,0,0,0,11.314l12.5,12.5L32.411,285.47A8,8,0,0,0,40,296a67.815,67.815,0,0,0,50.019-21.878c12.43,6.1,42.33,18.249,77.981,14.971V400a8,8,0,0,0,12.438,6.656l44.744-29.829L232,379.1V488a8,8,0,0,0,8,8h32a8,8,0,0,0,8-8V387.314l8-8,18.343,18.344A8,8,0,0,0,312,400h24a8,8,0,0,0,8-8V289.093c4.12.379,8.158.552,12.106.552,30.212,0,54.876-10.126,65.876-15.522A67.814,67.814,0,0,0,472,296a8,8,0,0,0,7.59-10.53l-6.437-19.309,12.5-12.5A8,8,0,0,0,485.657,242.343ZM280,32c25.4,0,56.518,5.277,66.887,7.176l18.324,32.068-34.06-14.6A8,8,0,0,0,320.41,61.47L316.9,72H234.984C251.178,50.039,268.61,32,280,32ZM223.832,88h87.735l-5.333,16H213.785C216.913,98.753,220.293,93.36,223.832,88Zm-41.026,48,20-16H309.193l20,16ZM304,152a48,48,0,0,1-96,0Zm-97.907,40a63.89,63.89,0,0,0,99.814,0h18.78l-10.344,10.343a8,8,0,0,0-2.1,7.6l4.766,19.065-19.065-4.766a7.99,7.99,0,0,0-8.6,3.323l-11.563,17.344-17.343-11.562a8,8,0,0,0-8.876,0l-17.343,11.562-11.563-17.344a7.994,7.994,0,0,0-8.6-3.323L195,229.005l4.766-19.065a8,8,0,0,0-2.1-7.6L187.314,192ZM51.517,278.747l4.072-12.217a8,8,0,0,0-1.932-8.187L43.313,248l10.344-10.343a8,8,0,0,0,1.932-8.187l-4.074-12.225A52.174,52.174,0,0,1,80,234.68v26.632A52.466,52.466,0,0,1,51.517,278.747ZM248,480V384.433l16,5.333V480ZM416,259.2c-10.776,5.37-42.566,18.935-78.685,12.908A8,8,0,0,0,328,280V384H315.313l-21.656-21.657a8,8,0,0,0-11.314,0l-12.5,12.5L226.53,360.41a8.019,8.019,0,0,0-6.968.934L184,385.052V280a8,8,0,0,0-9.315-7.892c-36.119,6.021-67.92-7.544-78.685-12.908V235.587c12.907-10.173,42.929-16.982,85.719-19.448l-5.48,21.921a8,8,0,0,0,9.7,9.7l26.531-6.632,12.873,19.309a8,8,0,0,0,11.094,2.218L256,249.615l19.562,13.041a8,8,0,0,0,11.094-2.218l12.873-19.309,26.531,6.632a8,8,0,0,0,9.7-9.7l-5.48-21.92c42.782,2.466,72.816,9.28,85.719,19.447Zm40.41,7.33,4.075,12.225A52.171,52.171,0,0,1,432,261.316V234.688a52.472,52.472,0,0,1,28.482-17.435L456.41,229.47a8,8,0,0,0,1.933,8.187L468.687,248l-10.344,10.343A8,8,0,0,0,456.41,266.53Z"/></svg>
